<svg width="100" height="100" viewBox="0 0 100 100" fill="none" xmlns="http://www.w3.org/2000/svg">
<path fill-rule="evenodd" clip-rule="evenodd" d="M52.4323 0.491811C53.2021 0.8164 53.8991 1.29179 54.4823 1.88997L58.4764 5.99043C59.2625 6.79814 60.2521 7.37863 61.3408 7.67062C62.4294 7.96262 63.5767 7.95529 64.6615 7.6494L70.1768 6.0906C70.9813 5.86441 71.823 5.8016 72.6522 5.90587C73.4814 6.01014 74.2813 6.27939 75.0048 6.69772C75.7283 7.11606 76.3607 7.67502 76.8647 8.34165C77.3687 9.00828 77.7342 9.76909 77.9395 10.5792L79.3481 16.1258C79.6254 17.2177 80.1923 18.2145 80.9889 19.0111C81.7855 19.8077 82.7823 20.3746 83.8742 20.6519L89.4208 22.0668C90.2303 22.2728 90.9905 22.6387 91.6564 23.143C92.3223 23.6473 92.8806 24.2798 93.2983 25.0033C93.716 25.7267 93.9847 26.5264 94.0886 27.3552C94.1925 28.1841 94.1294 29.0254 93.9031 29.8295L92.3506 35.3385C92.0447 36.4233 92.0374 37.5706 92.3294 38.6592C92.6214 39.7479 93.2019 40.7375 94.0096 41.5236L98.11 45.5177C98.7082 46.1009 99.1836 46.7979 99.5082 47.5678C99.8328 48.3376 100 49.1646 100 50C100 50.8354 99.8328 51.6624 99.5082 52.4323C99.1836 53.2021 98.7082 53.8991 98.11 54.4823L94.0096 58.4764C93.2019 59.2625 92.6214 60.2521 92.3294 61.3408C92.0374 62.4294 92.0447 63.5767 92.3506 64.6615L93.9031 70.1768C94.1294 70.9809 94.1925 71.8222 94.0886 72.651C93.9847 73.4799 93.716 74.2796 93.2983 75.003C92.8806 75.7264 92.3223 76.3589 91.6564 76.8632C90.9905 77.3676 90.2303 77.7335 89.4208 77.9395L83.8742 79.3481C82.7823 79.6254 81.7855 80.1923 80.9889 80.9889C80.1923 81.7855 79.6254 82.7823 79.3481 83.8742L77.9332 89.4208C77.7272 90.2303 77.3613 90.9905 76.857 91.6564C76.3527 92.3223 75.7202 92.8806 74.9967 93.2983C74.2733 93.716 73.4736 93.9847 72.6448 94.0886C71.8159 94.1925 70.9746 94.1294 70.1705 93.9031L64.6615 92.3506C63.5776 92.0459 62.4316 92.0392 61.3441 92.3312C60.2567 92.6231 59.2682 93.2029 58.4826 94.0096L54.4823 98.11C53.8991 98.7082 53.2021 99.1836 52.4323 99.5082C51.6624 99.8328 50.8354 100 50 100C49.1646 100 48.3376 99.8328 47.5677 99.5082C46.7979 99.1836 46.1009 98.7082 45.5177 98.11L41.5236 94.0096C40.7375 93.2019 39.7479 92.6214 38.6592 92.3294C37.5706 92.0374 36.4233 92.0447 35.3385 92.3506L29.8232 93.9031C29.0191 94.1294 28.1778 94.1925 27.349 94.0886C26.5201 93.9847 25.7204 93.716 24.997 93.2983C24.2736 92.8806 23.6411 92.3223 23.1368 91.6564C22.6324 90.9905 22.2665 90.2303 22.0605 89.4208L20.6519 83.8742C20.3746 82.7823 19.8077 81.7855 19.0111 80.9889C18.2145 80.1923 17.2177 79.6254 16.1258 79.3481L10.5792 77.9332C9.76909 77.7279 9.00829 77.3625 8.34166 76.8585C7.67502 76.3544 7.11606 75.722 6.69772 74.9985C6.27939 74.2751 6.01015 73.4751 5.90587 72.6459C5.80161 71.8167 5.86441 70.9751 6.09059 70.1705L7.6494 64.6615C7.95407 63.5776 7.96078 62.4316 7.66882 61.3442C7.37686 60.2567 6.79704 59.2682 5.99043 58.4826L1.88997 54.4823C1.29179 53.8991 0.816406 53.2021 0.491806 52.4323C0.167221 51.6624 0 50.8354 0 50C0 49.1646 0.167221 48.3376 0.491806 47.5678C0.816406 46.7979 1.29179 46.1009 1.88997 45.5177L5.99043 41.5174C6.79704 40.7318 7.37686 39.7433 7.66882 38.6559C7.96078 37.5684 7.95407 36.4224 7.6494 35.3385L6.09059 29.8232C5.86441 29.0187 5.80161 28.177 5.90587 27.3478C6.01015 26.5186 6.27939 25.7187 6.69772 24.9952C7.11606 24.2717 7.67502 23.6393 8.34166 23.1353C9.00829 22.6313 9.76909 22.2658 10.5792 22.0605L16.1258 20.6519C17.2177 20.3746 18.2145 19.8077 19.0111 19.0111C19.8077 18.2145 20.3746 17.2177 20.6519 16.1258L22.0668 10.5792C22.2721 9.76909 22.6375 9.00828 23.1416 8.34165C23.6456 7.67502 24.278 7.11606 25.0014 6.69772C25.7249 6.27939 26.5249 6.01014 27.3541 5.90587C28.1833 5.8016 29.0249 5.86441 29.8295 6.0906L35.3385 7.6494C36.4233 7.95529 37.5706 7.96262 38.6592 7.67062C39.7479 7.37863 40.7375 6.79814 41.5236 5.99043L45.5177 1.88997C46.1009 1.29179 46.7979 0.8164 47.5677 0.491811C48.3376 0.167221 49.1646 0 50 0C50.8354 0 51.6624 0.167221 52.4323 0.491811ZM65.1308 24.6912C61.9354 21.5637 57.7002 19.9999 52.4253 19.9999C48.8241 19.9999 45.6794 20.7406 42.9912 22.2221C40.3537 23.7036 38.3503 25.7612 36.9808 28.3949C35.6114 31.0287 34.952 34.0191 35.0027 37.3661H45.0454C45.0454 34.9519 45.6794 33.0589 46.9474 31.6871C48.2662 30.3154 50.0921 29.6295 52.4253 29.6295C54.657 29.6295 56.4068 30.3428 57.6749 31.7694C58.9936 33.196 59.653 35.1165 59.653 37.5307C59.653 40.8778 58.461 43.1823 56.0772 44.4443C53.6933 45.7063 50.295 46.3373 45.8823 46.3373H42.4587L42.8391 60.3291H52.197L52.5014 53.9916C57.7763 53.9916 62.0115 52.5925 65.2069 49.7941C68.4023 46.9409 70 42.8257 70 37.4484C70 32.0163 68.3769 27.7639 65.1308 24.6912ZM42.6869 78.1069C43.9549 79.3689 45.5526 79.9999 47.48 79.9999C49.3567 79.9999 50.9037 79.3689 52.121 78.1069C53.3382 76.79 53.9469 75.1713 53.9469 73.2509C53.9469 71.3305 53.3382 69.7392 52.121 68.4772C50.9037 67.1604 49.3567 66.5019 47.48 66.5019C45.5526 66.5019 43.9549 67.1604 42.6869 68.4772C41.4696 69.7392 40.861 71.3305 40.861 73.2509C40.861 75.1713 41.4696 76.79 42.6869 78.1069Z" fill="#F57D54"/>
</svg>
