<svg width="100" height="74" viewBox="0 0 100 74" fill="none" xmlns="http://www.w3.org/2000/svg">
<path d="M43.5042 26.0542C43.3657 25.6389 43.3104 25.2004 43.3414 24.7637C43.3724 24.327 43.4892 23.9007 43.6849 23.5091C43.8807 23.1176 44.1517 22.7684 44.4825 22.4816C44.8132 22.1948 45.1972 21.9759 45.6125 21.8375L50.6125 20.1708C51.1136 20.0038 51.6472 19.9582 52.1694 20.0379C52.6915 20.1175 53.1873 20.3201 53.6158 20.629C54.0443 20.9379 54.3932 21.3441 54.6339 21.8143C54.8746 22.2845 55 22.8051 55 23.3333V40C55 40.8841 54.6488 41.7319 54.0237 42.357C53.3986 42.9821 52.5507 43.3333 51.6667 43.3333C50.7826 43.3333 49.9348 42.9821 49.3096 42.357C48.6845 41.7319 48.3333 40.8841 48.3333 40V27.9583L47.7208 28.1625C47.3055 28.301 46.867 28.3563 46.4303 28.3253C45.9937 28.2942 45.5674 28.1775 45.1758 27.9817C44.7842 27.7859 44.4351 27.5149 44.1483 27.1842C43.8614 26.8535 43.6426 26.4695 43.5042 26.0542ZM100 70C100 70.8841 99.6488 71.7319 99.0237 72.357C98.3986 72.9821 97.5507 73.3333 96.6667 73.3333H3.33333C2.44928 73.3333 1.60143 72.9821 0.976311 72.357C0.351189 71.7319 0 70.8841 0 70C0 69.1159 0.351189 68.2681 0.976311 67.643C1.60143 67.0179 2.44928 66.6667 3.33333 66.6667H6.66667V26.6667C6.66667 24.8986 7.36905 23.2029 8.61929 21.9526C9.86953 20.7024 11.5652 20 13.3333 20H30V6.66667C30 4.89856 30.7024 3.20286 31.9526 1.95262C33.2029 0.702379 34.8986 0 36.6667 0H63.3333C65.1014 0 66.7971 0.702379 68.0474 1.95262C69.2976 3.20286 70 4.89856 70 6.66667V36.6667H86.6667C88.4348 36.6667 90.1305 37.369 91.3807 38.6193C92.631 39.8695 93.3333 41.5652 93.3333 43.3333V66.6667H96.6667C97.5507 66.6667 98.3986 67.0179 99.0237 67.643C99.6488 68.2681 100 69.1159 100 70ZM70 43.3333V66.6667H86.6667V43.3333H70ZM36.6667 66.6667H63.3333V6.66667H36.6667V66.6667ZM13.3333 66.6667H30V26.6667H13.3333V66.6667Z" fill="#FBFBFB"/>
</svg>
