<svg width="100" height="100" viewBox="0 0 100 100" fill="none" xmlns="http://www.w3.org/2000/svg">
<path fill-rule="evenodd" clip-rule="evenodd" d="M42.0724 4.07895L28.0899 23.1579L6.86642 30.6579C4.70246 31.4474 3.01706 32.7851 1.81024 34.6711C0.603412 36.557 0 38.5965 0 40.7895C0 41.8421 0.145651 42.8947 0.436954 43.9474C0.728256 45 1.20682 46.0088 1.87266 46.9737L15.4806 67.3684L14.9813 89.0789C14.898 92.1491 15.8552 94.7368 17.8527 96.8421C19.8502 98.9474 22.1806 100 24.8439 100C25.2601 100 25.7179 99.9781 26.2172 99.9342C26.7166 99.8904 27.1744 99.7807 27.5905 99.6053L49.9376 93.0263L72.2846 99.6053C73.9492 99.8684 74.8648 100 75.0312 100C77.6945 100 80.025 98.9474 82.0225 96.8421C84.02 94.7368 84.9771 92.1491 84.8939 89.0789L84.3945 67.5L98.1273 46.9737C98.7932 46.0088 99.2717 45 99.563 43.9474C99.8543 42.8947 100 41.8421 100 40.7895C100 38.5088 99.3758 36.4254 98.1273 34.5395C96.8789 32.6535 95.1727 31.3596 93.0087 30.6579L71.7853 23.1579L57.8027 4.07895C56.804 2.67544 55.618 1.64474 54.2447 0.986842C52.8714 0.328947 51.4357 0 49.9376 0C48.4395 0 47.0037 0.328947 45.6305 0.986842C44.2572 1.64474 43.0712 2.67544 42.0724 4.07895ZM37.4221 74.1635L51.3334 59.2586L65.2447 74.1635C65.7652 74.7212 66.4276 75 67.232 75C68.0364 75 68.6989 74.7212 69.2193 74.1635C69.7398 73.6058 70.0001 72.8961 70.0001 72.0342C70.0001 71.1724 69.7398 70.4626 69.2193 69.9049L55.3081 55L69.2193 40.0951C69.7398 39.5374 70.0001 38.8276 70.0001 37.9658C70.0001 37.1039 69.7398 36.3942 69.2193 35.8365C68.6989 35.2788 68.0364 35 67.232 35C66.4276 35 65.7652 35.2788 65.2447 35.8365L51.3334 50.7414L37.4221 35.8365C36.9016 35.2788 36.2392 35 35.4348 35C34.6304 35 33.968 35.2788 33.4475 35.8365C32.927 36.3942 32.6667 37.1039 32.6667 37.9658C32.6667 38.8276 32.927 39.5374 33.4475 40.0951L47.3588 55L33.4475 69.9049C32.927 70.4626 32.6667 71.1724 32.6667 72.0342C32.6667 72.8961 32.927 73.6058 33.4475 74.1635C33.968 74.7212 34.6304 75 35.4348 75C36.2392 75 36.9016 74.7212 37.4221 74.1635Z" fill="#F57D54"/>
</svg>
