<svg width="100" height="100" viewBox="0 0 100 100" fill="none" xmlns="http://www.w3.org/2000/svg">
<path fill-rule="evenodd" clip-rule="evenodd" d="M27.7778 22.2222C27.7778 16.3285 30.119 10.6762 34.2865 6.50874C38.454 2.34126 44.1063 0 50 0C55.8937 0 61.546 2.34126 65.7135 6.50874C69.881 10.6762 72.2222 16.3285 72.2222 22.2222C72.2222 28.1159 69.881 33.7682 65.7135 37.9357C61.546 42.1032 55.8937 44.4444 50 44.4444C44.1063 44.4444 38.454 42.1032 34.2865 37.9357C30.119 33.7682 27.7778 28.1159 27.7778 22.2222ZM27.7778 55.5556C20.4107 55.5556 13.3453 58.4821 8.13592 63.6915C2.92658 68.9008 0 75.9662 0 83.3333C0 87.7536 1.75595 91.9928 4.88155 95.1184C8.00716 98.2441 12.2464 100 16.6667 100H83.3333C87.7536 100 91.9928 98.2441 95.1184 95.1184C98.2441 91.9928 100 87.7536 100 83.3333C100 75.9662 97.0734 68.9008 91.8641 63.6915C86.6547 58.4821 79.5893 55.5556 72.2222 55.5556H27.7778Z" fill="#BABABA"/>
</svg>
